<svg xmlns="http://www.w3.org/2000/svg" width="23.829" height="23.755" viewBox="0 0 23.829 23.755">
  <g id="Raggruppa_3172" data-name="Raggruppa 3172" transform="translate(0 0)">
    <path id="Tracciato_1" data-name="Tracciato 1" d="M32.2,71.069a2.909,2.909,0,1,0,2.909-2.909A2.909,2.909,0,0,0,32.2,71.069Z" transform="translate(-26.225 -50.224)" fill="#0c0c0c"/>
    <path id="Tracciato_2" data-name="Tracciato 2" d="M63.469,68.16a2.909,2.909,0,1,0,2.909,2.909,2.909,2.909,0,0,0-2.909-2.909Z" transform="translate(-45.123 -50.224)" fill="#0c0c0c"/>
    <path id="Tracciato_3" data-name="Tracciato 3" d="M14.3,14.954a.667.667,0,0,0,.544.771l.891.157a3.647,3.647,0,0,1,2.966,2.9l1.762,8.815a4.671,4.671,0,0,0,4.581,3.757h6.983a4.651,4.651,0,0,0,4.551-3.62L38.1,21.12a.667.667,0,0,0-.651-.817H20.366l-.357-1.785a4.975,4.975,0,0,0-4.047-3.95l-.891-.157A.667.667,0,0,0,14.3,14.954Z" transform="translate(-14.291 -14.4)" fill="#0c0c0c"/>
  </g>
</svg>
