<svg xmlns="http://www.w3.org/2000/svg" width="52" height="52" viewBox="0 0 52 52">
  <g id="Raggruppa_717" data-name="Raggruppa 717" transform="translate(-120 -414)">
    <circle id="Ellisse_23" data-name="Ellisse 23" cx="26" cy="26" r="26" transform="translate(120 414)" fill="#0b529d"/>
    <g id="Raggruppa_716" data-name="Raggruppa 716" transform="translate(120.084 414)">
      <rect id="Rettangolo_11" data-name="Rettangolo 11" width="52" height="51" rx="1" transform="translate(-0.084)" fill="none"/>
      <g id="facebook" transform="translate(20.093 13.933)">
        <path id="Tracciato_15" data-name="Tracciato 15" d="M12.921.167V3.842H10.736a2.046,2.046,0,0,0-1.615.5,2.306,2.306,0,0,0-.418,1.5V8.477h4.079l-.543,4.12H8.7V23.163H4.444V12.6H.894V8.477h3.55V5.443A5.384,5.384,0,0,1,5.892,1.427,5.254,5.254,0,0,1,9.747,0,23.027,23.027,0,0,1,12.921.167Z" transform="translate(-0.894 0)" fill="#fff"/>
      </g>
    </g>
  </g>
</svg>
