<svg xmlns="http://www.w3.org/2000/svg" width="15.153" height="16.018" viewBox="0 0 15.153 16.018">
  <g id="noun-attached-3546158" transform="translate(-11.374 -9.175)">
    <path id="Tracciato_406" data-name="Tracciato 406" d="M25.229,10.474a4.444,4.444,0,0,0-6.277,0l-7.434,7.434a.49.49,0,1,0,.693.693l7.434-7.434a3.458,3.458,0,0,1,4.89,4.89L17.1,23.49h0A2.471,2.471,0,1,1,13.608,20l7.433-7.434a1.484,1.484,0,0,1,2.1,2.1l-7.434,7.433a.49.49,0,0,0,.694.693l7.434-7.434a2.465,2.465,0,0,0-3.486-3.486L12.914,19.3a3.452,3.452,0,0,0,4.879,4.883l0,0,7.434-7.434A4.444,4.444,0,0,0,25.229,10.474Z" transform="translate(0 0)" fill="#515151"/>
  </g>
</svg>
