<svg xmlns="http://www.w3.org/2000/svg" width="18.398" height="14.726" viewBox="0 0 18.398 14.726">
  <g id="noun-food-1774017" transform="translate(-21.102 -26.978)">
    <path id="Tracciato_403" data-name="Tracciato 403" d="M38.969,29.834H35.721V27.228h-.562v2.606H31.911a.281.281,0,0,0-.281.281v2.3a6.373,6.373,0,0,0-3.145-.839,6.45,6.45,0,0,0-6.134,4.546,1.716,1.716,0,0,0-.026,3.106v.489c0,.972.575,1.735,1.309,1.735h9.7a1.251,1.251,0,0,0,1.09-.764h3.514a1.31,1.31,0,0,0,1.309-1.309V30.115A.28.28,0,0,0,38.969,29.834Zm-.281.562v1.731H35.721V30.4Zm-3.529,0v1.731H32.192V30.4ZM23,35.964a5.852,5.852,0,0,1,10.979,0H23Zm-1.082,1.72a1.159,1.159,0,0,1,1.158-1.158H33.9a1.158,1.158,0,0,1,0,2.316H23.072A1.159,1.159,0,0,1,21.914,37.684Zm11.422,3.209h-9.7c-.405,0-.747-.537-.747-1.173v-.327a1.713,1.713,0,0,0,.185.011H33.9a1.722,1.722,0,0,0,.185-.011v.327C34.083,40.356,33.741,40.893,33.336,40.893Zm4.6-.764H34.608a2.373,2.373,0,0,0,.037-.409v-.489a1.716,1.716,0,0,0-.026-3.106,6.405,6.405,0,0,0-2.427-3.35v-.086h6.5v6.693A.748.748,0,0,1,37.941,40.129Z" transform="translate(0 0)" fill="#fff" stroke="#fff" stroke-width="0.5"/>
  </g>
</svg>
