<svg xmlns="http://www.w3.org/2000/svg" width="20.723" height="20.723" viewBox="0 0 20.723 20.723">
  <g id="Icon_feather-eye-off" data-name="Icon feather-eye-off" transform="translate(-0.793 -0.793)">
    <path id="Tracciato_390" data-name="Tracciato 390" d="M16.368,17.8a9.048,9.048,0,0,1-5.213,1.744c-6.144,0-9.654-6.772-9.654-6.772A15.783,15.783,0,0,1,5.941,7.744M9.311,6.2A8.286,8.286,0,0,1,11.154,6c6.144,0,9.654,6.772,9.654,6.772a15.643,15.643,0,0,1-1.9,2.7m-5.9-.906a2.7,2.7,0,0,1-2.578.729,2.588,2.588,0,0,1-1.9-1.832,2.482,2.482,0,0,1,.756-2.486" transform="translate(0 -1.618)" fill="none" stroke="#232323" stroke-linecap="round" stroke-linejoin="round" stroke-width="1"/>
    <path id="Tracciato_391" data-name="Tracciato 391" d="M1.5,1.5,20.809,20.809" fill="none" stroke="#232323" stroke-linecap="round" stroke-linejoin="round" stroke-width="1"/>
  </g>
</svg>
