<svg xmlns="http://www.w3.org/2000/svg" width="19.717" height="15.172" viewBox="0 0 19.717 15.172">
  <g id="noun-logout-1262655" transform="translate(0.15 0.15)">
    <g id="Raggruppa_3085" data-name="Raggruppa 3085" transform="translate(0)">
      <path id="Tracciato_418" data-name="Tracciato 418" d="M55.552,33.573a.669.669,0,0,1,.762-.042.366.366,0,0,1,.054.593l-2.64,2.393h8.056a.437.437,0,1,1,0,.847H53.728l2.64,2.393a.366.366,0,0,1-.054.593.675.675,0,0,1-.354.106.554.554,0,0,1-.408-.148l-3.429-3.092a.371.371,0,0,1,0-.551Z" transform="translate(-52 -29.504)" stroke="#000" stroke-width="0.3"/>
      <path id="Tracciato_419" data-name="Tracciato 419" d="M15.589,33.872a7.1,7.1,0,0,1-6.557-4.605.5.5,0,0,1,.251-.624.456.456,0,0,1,.594.264,6.18,6.18,0,0,0,5.712,4.006,6.332,6.332,0,0,0,6.169-6.476,6.332,6.332,0,0,0-6.169-6.476,6.168,6.168,0,0,0-5.712,4.03.456.456,0,0,1-.594.264.5.5,0,0,1-.251-.624A7.089,7.089,0,0,1,15.589,19a7.272,7.272,0,0,1,7.082,7.436A7.272,7.272,0,0,1,15.589,33.872Z" transform="translate(-3.254 -19)" stroke="#000" stroke-width="0.3"/>
    </g>
  </g>
</svg>
