<svg xmlns="http://www.w3.org/2000/svg" width="13.1" height="19.4" viewBox="0 0 13.1 19.4">
  <g id="noun-coupon-voucher-6107026" transform="translate(22.85 0.25) rotate(90)">
    <path id="Tracciato_538" data-name="Tracciato 538" d="M17.64,10H1.26A1.26,1.26,0,0,0,0,11.26V21.34A1.26,1.26,0,0,0,1.26,22.6H17.64a1.26,1.26,0,0,0,1.26-1.26V19.653a1.258,1.258,0,0,0-.9-1.226,2.205,2.205,0,0,1,0-4.253,1.26,1.26,0,0,0,.9-1.224V11.262A1.26,1.26,0,0,0,17.64,10Zm.63,2.95a.627.627,0,0,1-.439.618,2.835,2.835,0,0,0,0,5.468.627.627,0,0,1,.439.618V21.34a.63.63,0,0,1-.63.63H14.49v-.315a.315.315,0,1,0-.63,0v.315H1.26a.63.63,0,0,1-.63-.63V11.26a.63.63,0,0,1,.63-.63h12.6v.315a.315.315,0,1,0,.63,0V10.63h3.15a.63.63,0,0,1,.63.63Z" transform="translate(0)" fill="#fff" stroke="#fff" stroke-width="0.5"/>
    <path id="Tracciato_541" data-name="Tracciato 541" d="M44.315,16a.315.315,0,0,0-.315.315v.63a.315.315,0,1,0,.63,0v-.63A.315.315,0,0,0,44.315,16Z" transform="translate(-30.14 -3.48)" fill="#fff" stroke="#fff" stroke-width="0.5"/>
    <path id="Tracciato_542" data-name="Tracciato 542" d="M44.315,40a.315.315,0,0,0-.315.315v.63a.315.315,0,0,0,.63,0v-.63A.315.315,0,0,0,44.315,40Z" transform="translate(-30.14 -21.495)" fill="#fff" stroke="#fff" stroke-width="0.5"/>
    <path id="Tracciato_543" data-name="Tracciato 543" d="M44.315,34a.315.315,0,0,0-.315.315v.63a.315.315,0,0,0,.63,0v-.63A.315.315,0,0,0,44.315,34Z" transform="translate(-30.14 -18.33)" fill="#fff" stroke="#fff" stroke-width="0.5"/>
    <path id="Tracciato_544" data-name="Tracciato 544" d="M18.022,18.092l-6.93,6.93a.318.318,0,0,0,.45.45l6.93-6.93a.318.318,0,1,0-.45-.45Z" transform="translate(-7.535 -5.48)" fill="#fff" stroke="#fff" stroke-width="0.5"/>
    <path id="Tracciato_545" data-name="Tracciato 545" d="M12.575,21.15A1.575,1.575,0,1,0,11,19.575,1.575,1.575,0,0,0,12.575,21.15Zm0-2.52a.945.945,0,1,1-.945.945.945.945,0,0,1,.945-.945Z" transform="translate(-7.535 -5.48)" fill="#fff" stroke="#fff" stroke-width="0.5"/>
    <path id="Tracciato_546" data-name="Tracciato 546" d="M26.575,32a1.575,1.575,0,1,0,1.575,1.575A1.575,1.575,0,0,0,26.575,32Zm0,2.52a.945.945,0,1,1,.945-.945A.945.945,0,0,1,26.575,34.52Z" transform="translate(-17.125 -15.07)" fill="#fff" stroke="#fff" stroke-width="0.5"/>
  </g>
</svg>
