<svg xmlns="http://www.w3.org/2000/svg" width="15.713" height="17.958" viewBox="0 0 15.713 17.958">
  <g id="noun-business-user-3579300" transform="translate(-3 -2)">
    <g id="Raggruppa_771" data-name="Raggruppa 771" transform="translate(3 2)">
      <path id="Tracciato_402" data-name="Tracciato 402" d="M10.858,2a4.495,4.495,0,0,1,2.494,8.224,7.951,7.951,0,0,1,3.042,1.722,6.972,6.972,0,0,1,2.276,4.368c0,.039.045.981.043,1.107a13.2,13.2,0,0,1-7.857,2.536A13.307,13.307,0,0,1,3,17.425c.018-.742.042-1.1.046-1.136a6.956,6.956,0,0,1,2.227-4.3,7.985,7.985,0,0,1,3.1-1.769,4.312,4.312,0,0,1-.675-.545A4.49,4.49,0,0,1,10.858,2ZM9.214,11.165a6.841,6.841,0,0,0-3.142,1.669,5.862,5.862,0,0,0-1.949,4,12.546,12.546,0,0,0,6.75,2,12.418,12.418,0,0,0,6.719-1.988,6.793,6.793,0,0,0-2-4.054,6.811,6.811,0,0,0-3.011-1.608l-.263.86.755,4.055a1.474,1.474,0,0,1-.407,1.324l-.122.109-.809.623A1.474,1.474,0,0,1,10,18.231l-.128-.1-.737-.616a1.474,1.474,0,0,1-.518-1.263l.023-.159.842-3.976Zm2.11,1.442h-.861L9.7,16.325a.391.391,0,0,0,.072.316l.058.061.737.616a.391.391,0,0,0,.418.055l.077-.048.811-.644a.392.392,0,0,0,.149-.286l0-.083Zm.208-1.633H10.272l.162.541h.929Zm-.673-7.852A3.365,3.365,0,1,0,13.23,4.1,3.355,3.355,0,0,0,10.858,3.122Z" transform="translate(-3 -2)" fill="#fff" fill-rule="evenodd"/>
    </g>
  </g>
</svg>
