<svg xmlns="http://www.w3.org/2000/svg" width="16.717" height="12.5" viewBox="0 0 16.717 12.5">
  <path id="Tracciato_251" data-name="Tracciato 251" d="M20.17,14.475c-1.817-3.829-4.565-5.755-8.248-5.755s-6.43,1.927-8.248,5.757a1.156,1.156,0,0,0,0,.987c1.817,3.829,4.565,5.755,8.248,5.755s6.43-1.927,8.248-5.757A1.156,1.156,0,0,0,20.17,14.475Zm-8.248,5.364c-3.092,0-5.357-1.568-6.954-4.87,1.6-3.3,3.861-4.87,6.954-4.87s5.357,1.568,6.954,4.87C17.281,18.271,15.017,19.839,11.922,19.839ZM11.846,11.6A3.374,3.374,0,1,0,15.22,14.97,3.374,3.374,0,0,0,11.846,11.6Zm0,5.521a2.147,2.147,0,1,1,2.147-2.147A2.146,2.146,0,0,1,11.846,17.117Z" transform="translate(-3.564 -8.72)" fill="#b6b9bb"/>
</svg>
