<svg xmlns="http://www.w3.org/2000/svg" width="17.877" height="16.011" viewBox="0 0 17.877 16.011">
  <g id="Icon_ionic-ios-menu" data-name="Icon ionic-ios-menu" transform="translate(0)">
    <path id="Tracciato_8" data-name="Tracciato 8" d="M21.632,11.615H5.245A.747.747,0,0,1,4.5,10.87h0a.747.747,0,0,1,.745-.745H21.632a.747.747,0,0,1,.745.745h0A.747.747,0,0,1,21.632,11.615Z" transform="translate(-4.5 -10.125)" fill="#171717"/>
    <path id="Tracciato_9" data-name="Tracciato 9" d="M21.632,18.365H5.245A.747.747,0,0,1,4.5,17.62h0a.747.747,0,0,1,.745-.745H21.632a.747.747,0,0,1,.745.745h0A.747.747,0,0,1,21.632,18.365Z" transform="translate(-4.5 -9.614)" fill="#171717"/>
    <path id="Tracciato_10" data-name="Tracciato 10" d="M21.632,25.115H5.245A.747.747,0,0,1,4.5,24.37h0a.747.747,0,0,1,.745-.745H21.632a.747.747,0,0,1,.745.745h0A.747.747,0,0,1,21.632,25.115Z" transform="translate(-4.5 -9.103)" fill="#171717"/>
  </g>
</svg>
