<svg xmlns="http://www.w3.org/2000/svg" width="22.581" height="21.712" viewBox="0 0 22.581 21.712">
  <path id="Icon_ionic-ios-heart-empty" data-name="Icon ionic-ios-heart-empty" d="M19.876,3.937h-.054A6.176,6.176,0,0,0,14.665,6.76,6.176,6.176,0,0,0,9.509,3.937H9.454a6.137,6.137,0,0,0-6.079,6.134,13.213,13.213,0,0,0,2.595,7.2,45.469,45.469,0,0,0,8.7,8.375,45.469,45.469,0,0,0,8.7-8.375,13.213,13.213,0,0,0,2.595-7.2A6.137,6.137,0,0,0,19.876,3.937Zm2.258,12.441a41.633,41.633,0,0,1-7.469,7.36A41.7,41.7,0,0,1,7.2,16.373a11.71,11.71,0,0,1-2.3-6.3,4.605,4.605,0,0,1,4.57-4.608h.049a4.551,4.551,0,0,1,2.231.586A4.743,4.743,0,0,1,13.4,7.6a1.525,1.525,0,0,0,2.551,0A4.79,4.79,0,0,1,17.6,6.049a4.551,4.551,0,0,1,2.231-.586h.049a4.605,4.605,0,0,1,4.57,4.608A11.858,11.858,0,0,1,22.134,16.379Z" transform="translate(-3.375 -3.937)" fill="#0c0c0c"/>
</svg>
