<svg xmlns="http://www.w3.org/2000/svg" width="18.694" height="18.694" viewBox="0 0 18.694 18.694">
  <path id="Tracciato_417" data-name="Tracciato 417" d="M18.358,5.636A9,9,0,1,0,5.636,18.358,9,9,0,1,0,18.358,5.636ZM12,3.509A8.482,8.482,0,0,1,18.249,17.73,6.387,6.387,0,0,0,16.212,14.5,6.465,6.465,0,0,0,12,13.055,6.474,6.474,0,0,0,7.782,14.5a6.4,6.4,0,0,0-2.037,3.229A8.481,8.481,0,0,1,12,3.509ZM6.164,18.153A5.723,5.723,0,0,1,12,13.566a5.725,5.725,0,0,1,5.833,4.586,8.461,8.461,0,0,1-11.665,0ZM12,12.353A3.264,3.264,0,1,0,8.733,9.087,3.268,3.268,0,0,0,12,12.353Zm0-6.02A2.755,2.755,0,1,1,9.242,9.087,2.758,2.758,0,0,1,12,6.333Z" transform="translate(-2.65 -2.65)" fill="#0c0c0c" stroke="#0c0c0c" stroke-width="0.7"/>
</svg>
