<svg xmlns="http://www.w3.org/2000/svg" width="22.808" height="22.881" viewBox="0 0 22.808 22.881">
  <g id="Raggruppa_136" data-name="Raggruppa 136" transform="translate(0.15 0.223)">
    <g id="Raggruppa_135" data-name="Raggruppa 135">
      <path id="Tracciato_396" data-name="Tracciato 396" d="M152.34,263.508a1.468,1.468,0,0,0,1.468-1.468v-5.872a.49.49,0,0,1,.489-.489h3.914a.49.49,0,0,1,.489.489v5.872a1.468,1.468,0,0,0,1.468,1.468h4.893a2.447,2.447,0,0,0,2.447-2.447V250.3a2.447,2.447,0,0,0-.944-1.931l-8.808-6.85a2.447,2.447,0,0,0-3,0l-8.808,6.85A2.447,2.447,0,0,0,145,250.3v10.765a2.447,2.447,0,0,0,2.447,2.447Zm0-.979h-4.893a1.468,1.468,0,0,1-1.468-1.468V250.3a1.467,1.467,0,0,1,.567-1.159l8.808-6.85a1.468,1.468,0,0,1,1.8,0l8.808,6.85a1.467,1.467,0,0,1,.567,1.159v10.765a1.468,1.468,0,0,1-1.468,1.468h-4.893a.489.489,0,0,1-.489-.489v-5.872a1.468,1.468,0,0,0-1.468-1.468H154.3a1.468,1.468,0,0,0-1.468,1.468v5.872A.489.489,0,0,1,152.34,262.53Z" transform="translate(-145 -241)" fill="#0c0c0c" stroke="#0c0c0c" stroke-width="0.3" fill-rule="evenodd"/>
    </g>
  </g>
</svg>
