<svg xmlns="http://www.w3.org/2000/svg" width="11.16" height="14.495" viewBox="0 0 11.16 14.495">
  <g id="local-two" transform="translate(-8.425 -3.425)">
    <path id="Tracciato_24" data-name="Tracciato 24" d="M-221.027-1057.957c-.213-.17-5.221-4.228-5.221-8.79a5.586,5.586,0,0,1,5.58-5.579,5.586,5.586,0,0,1,5.58,5.579c0,4.562-5.008,8.62-5.221,8.79a.571.571,0,0,1-.359.126A.571.571,0,0,1-221.027-1057.957Zm-4.071-8.79a9.328,9.328,0,0,0,2.36,5.418,18.837,18.837,0,0,0,2.07,2.166,18.836,18.836,0,0,0,2.07-2.166,9.328,9.328,0,0,0,2.36-5.418,4.435,4.435,0,0,0-4.43-4.43A4.435,4.435,0,0,0-225.1-1066.748Zm1.853,0a2.58,2.58,0,0,1,2.577-2.577,2.58,2.58,0,0,1,2.577,2.577,2.58,2.58,0,0,1-2.577,2.578A2.58,2.58,0,0,1-223.245-1066.748Zm1.15,0a1.428,1.428,0,0,0,1.426,1.427,1.428,1.428,0,0,0,1.426-1.427,1.428,1.428,0,0,0-1.426-1.427A1.428,1.428,0,0,0-222.095-1066.748Z" transform="translate(234.673 1075.752)" fill="#a13ba7"/>
  </g>
</svg>
