<svg xmlns="http://www.w3.org/2000/svg" width="21.831" height="23" viewBox="0 0 21.831 23">
  <path id="Icon_ionic-ios-search" data-name="Icon ionic-ios-search" d="M26.075,25.828,20,19.373a9.453,9.453,0,0,0,1.9-5.719,8.94,8.94,0,0,0-8.7-9.162,8.945,8.945,0,0,0-8.7,9.168,8.94,8.94,0,0,0,8.7,9.162,8.407,8.407,0,0,0,5.486-2.048l6.032,6.413a.908.908,0,0,0,.677.305.9.9,0,0,0,.642-.269A1.028,1.028,0,0,0,26.075,25.828ZM13.2,20.852a6.621,6.621,0,0,1-4.832-2.108,7.458,7.458,0,0,1,0-10.168,6.593,6.593,0,0,1,9.665,0,7.458,7.458,0,0,1,0,10.168A6.621,6.621,0,0,1,13.2,20.852Z" transform="translate(-4.5 -4.493)" fill="#171717"/>
</svg>
