<svg id="Raggruppa_3159" data-name="Raggruppa 3159" xmlns="http://www.w3.org/2000/svg" width="15.068" height="16.937" viewBox="0 0 15.068 16.937">
  <path id="Tracciato_731" data-name="Tracciato 731" d="M38.411,21.75H34.759V20.684a1.5,1.5,0,0,0-1.494-1.494H29.643a1.5,1.5,0,0,0-1.494,1.494V21.75H24.5a.578.578,0,1,0,0,1.156h1.089v9.946a3.281,3.281,0,0,0,3.276,3.276h5.183a3.281,3.281,0,0,0,3.276-3.276V22.905h1.089a.578.578,0,1,0,0-1.156Zm-2.245,11.1a2.122,2.122,0,0,1-2.12,2.12H28.863a2.122,2.122,0,0,1-2.12-2.12V22.943h9.423ZM29.3,20.684a.338.338,0,0,1,.338-.338h3.623a.338.338,0,0,1,.338.338V21.75H29.3Z" transform="translate(-23.92 -19.19)" fill="#dc5a48"/>
  <path id="Tracciato_732" data-name="Tracciato 732" d="M42.634,48.806a.636.636,0,0,0,.634-.634V41.824a.634.634,0,1,0-1.269,0v6.347A.636.636,0,0,0,42.634,48.806Z" transform="translate(-36.819 -35.267)" fill="#dc5a48"/>
  <path id="Tracciato_733" data-name="Tracciato 733" d="M54.634,48.806a.636.636,0,0,0,.634-.634V41.824a.634.634,0,0,0-1.269,0v6.347A.636.636,0,0,0,54.634,48.806Z" transform="translate(-45.381 -35.267)" fill="#dc5a48"/>
</svg>
