<svg xmlns="http://www.w3.org/2000/svg" width="124" height="113" viewBox="0 0 124 113">
  <g id="Raggruppa_3176" data-name="Raggruppa 3176" transform="translate(-126 -228)">
    <circle id="Ellisse_68" data-name="Ellisse 68" cx="36.5" cy="36.5" r="36.5" transform="translate(151 228)" fill="#fff"/>
    <g id="Livello_1" data-name="Livello 1" transform="translate(126 317.34)">
      <text id="CLIPLAZA" transform="translate(0 17.66)" fill="#fff" font-size="22" font-family="GoodTimingRg-Bold, Good Timing" font-weight="700"><tspan x="0" y="0">CLIP</tspan><tspan y="0" letter-spacing="0.02em">L</tspan><tspan y="0" letter-spacing="-0.01em">A</tspan><tspan y="0">ZA</tspan></text>
    </g>
    <g id="Livello_1-2" data-name="Livello 1" transform="translate(165.944 243.66)">
      <g id="Raggruppa_3175" data-name="Raggruppa 3175">
        <rect id="Rettangolo_867" data-name="Rettangolo 867" width="0.561" transform="translate(23.827 24.158)" fill="#745ea2"/>
        <path id="Tracciato_745" data-name="Tracciato 745" d="M60.032,13.07v1.553a.418.418,0,0,1-.012-.071V13.07Z" transform="translate(-24.568 -5.35)" fill="#745ea2"/>
        <path id="Tracciato_746" data-name="Tracciato 746" d="M21.37,2.28a11.968,11.968,0,0,0-1.784.833c-.148-.077-.3-.154-.443-.224a11.368,11.368,0,0,0-1.359-.567,12.153,12.153,0,1,0-5.978,23.467,11.622,11.622,0,0,0,1.642.154h2.079v1.642H13.449a13.679,13.679,0,0,1-1.642-.136A13.8,13.8,0,1,1,19.575,1.27a12.351,12.351,0,0,1,1.11.579c.236.136.461.278.685.425Z" fill="#af2bad"/>
        <path id="Tracciato_747" data-name="Tracciato 747" d="M18.34,23.921h1.742v1.642H18.34c-.112,0-.224,0-.337-.006a7.507,7.507,0,0,1-1.642-.266A7.229,7.229,0,0,1,18.34,11.11h.012a7.181,7.181,0,0,1,1.79.23c-.2.289-.39.591-.561.9-.053.1-.112.195-.159.3a.029.029,0,0,1-.006.018c-.047.095-.1.189-.142.284h0a5.292,5.292,0,0,0-.921-.077,5.188,5.188,0,0,0-.874.071h-.006a5.584,5.584,0,0,0-.006,11.028c.183.03.366.047.555.065.112,0,.224.012.337.012Z" transform="translate(-4.548 -4.548)" fill="#af2bad"/>
        <path id="Tracciato_748" data-name="Tracciato 748" d="M46.916,30.111H42.97V26.166a3.946,3.946,0,1,1,3.946,3.946Z" transform="translate(-17.589 -9.095)" fill="#eab840" stroke="#eab840" stroke-linecap="round" stroke-linejoin="round" stroke-width="0.07"/>
        <path id="Tracciato_749" data-name="Tracciato 749" d="M20.3,6.452a12.484,12.484,0,0,0-.981.874l-.035.03c-.106.106-.219.219-.319.331a.407.407,0,0,0-.047-.018,8.237,8.237,0,0,0-1.754-.4,8.531,8.531,0,0,0-1.1-.071,8.866,8.866,0,0,0-.331,17.726c.112,0,.224.006.337.006h1.742V26.57H15.727a10.052,10.052,0,0,1-1.642-.183A10.507,10.507,0,0,1,16.058,5.56a10.319,10.319,0,0,1,2.434.289,10.611,10.611,0,0,1,1.571.508c.077.03.154.065.224.1Z" transform="translate(-2.272 -2.276)" fill="#af2bad"/>
        <g id="Raggruppa_3174" data-name="Raggruppa 3174" transform="translate(15.54 3.284)">
          <path id="Tracciato_750" data-name="Tracciato 750" d="M40.484,41.644h0Zm0-3.284h0Z" transform="translate(-31.996 -18.986)" fill="#8158d2"/>
          <path id="Tracciato_751" data-name="Tracciato 751" d="M42.033,5.7A13.124,13.124,0,0,0,40.1,5.56a13.7,13.7,0,0,0-8.553,2.983A14.8,14.8,0,0,0,30.3,9.653q-.239.239-.461.5c-.219.242-.425.49-.626.744-.183.236-.36.478-.526.727-.142.207-.278.419-.4.632a12.968,12.968,0,0,0-.774,1.477c-.083.189-.165.384-.242.579-.047.112-.089.224-.13.343-.089.242-.171.478-.242.727-.03.095-.059.189-.083.289a13.966,13.966,0,0,0-.484,2.995c-.012.23-.018.467-.018.7V39.925a12.317,12.317,0,0,1,1.642.715V19.352c0-.236.006-.467.024-.7a11.187,11.187,0,0,1,.189-1.548c.012-.077.03-.154.047-.23A11.678,11.678,0,0,1,28.767,15c.089-.236.189-.467.3-.691a9.168,9.168,0,0,1,.478-.927,11.8,11.8,0,0,1,.927-1.406,12.8,12.8,0,0,1,1.051-1.2l.03-.03a12.641,12.641,0,0,1,1.24-1.075A12.106,12.106,0,0,1,39.86,7.22h.248A12.156,12.156,0,0,1,51.289,24.13a12.506,12.506,0,0,1-1.14,2.085,11.491,11.491,0,0,1-1.341,1.636,12.213,12.213,0,0,1-1.471,1.288,11.917,11.917,0,0,1-1.613,1.01,12.138,12.138,0,0,1-5.617,1.376H34.827a.305.305,0,0,1-.307-.307V30.191a.305.305,0,0,1,.307-.307h5.281a10.484,10.484,0,0,0,6.5-2.268,10.632,10.632,0,0,0,1.465-1.406A10.452,10.452,0,0,0,49.334,24.4,10.249,10.249,0,0,0,50.279,22a10.514,10.514,0,0,0-9-13.077,10.464,10.464,0,0,0-7.4,1.979,10.745,10.745,0,0,0-1.24,1.069,11.009,11.009,0,0,0-1.075,1.27,9.608,9.608,0,0,0-.679,1.069c-.077.136-.148.272-.219.413A10.466,10.466,0,0,0,30,16.464c-.065.219-.118.437-.165.656a11.35,11.35,0,0,0-.213,1.435c-.024.266-.03.538-.03.809V41.685a11.949,11.949,0,0,1,1.648,1.488v-.189a.418.418,0,0,1-.012-.071V19.352a9.046,9.046,0,0,1,.1-1.335,9.192,9.192,0,0,1,.189-.91,8.081,8.081,0,0,1,.331-1.01,9.053,9.053,0,0,1,.815-1.577c.047-.077.1-.148.148-.219a9.284,9.284,0,0,1,.892-1.087,8.948,8.948,0,0,1,1.24-1.075,8.861,8.861,0,0,1,14.016,7.212c0,.159,0,.313-.012.473a8.7,8.7,0,0,1-.614,2.806,8.8,8.8,0,0,1-1.14,2.032A9.021,9.021,0,0,1,45.731,26.2a8.889,8.889,0,0,1-5.641,2.026h-5.3a.3.3,0,0,1-.224-.124.273.273,0,0,1-.059-.183V26.889a.307.307,0,0,1,.307-.307H40.1a7.229,7.229,0,0,0,2.327-.384,7.365,7.365,0,0,0,2.268-1.264,7.194,7.194,0,0,0,1.488-1.677h0a7.212,7.212,0,0,0,1.146-3.892,7,7,0,0,0-.224-1.772,7.236,7.236,0,0,0-6.379-5.422c-.207-.018-.413-.03-.626-.03A7.2,7.2,0,0,0,36.015,13.4a6.892,6.892,0,0,0-1.081.91c-.053.053-.106.112-.159.171a7.373,7.373,0,0,0-.992,1.37,6.952,6.952,0,0,0-.555,1.27c-.047.148-.095.3-.13.455a7.178,7.178,0,0,0-.224,1.79V42.725h.018v2.7a12.165,12.165,0,0,1,1.589,5.192h.035V33.475a.305.305,0,0,1,.307-.307H40.1a13.622,13.622,0,0,0,6.231-1.494,13.89,13.89,0,0,0,3.06-2.126,13.818,13.818,0,0,0,1.4-1.483A13.78,13.78,0,0,0,42.028,5.725ZM34.514,24.934H34.8a.3.3,0,0,1-.284-.307v-5.41a5.526,5.526,0,0,1,.431-2.026c.012-.03.03-.059.041-.089a5.613,5.613,0,0,1,2.1-2.457,5.6,5.6,0,0,1,3.012-.88,2.469,2.469,0,0,1,.3.012,5.591,5.591,0,0,1,5.286,5.576v.077A5.514,5.514,0,0,1,45,22a5.668,5.668,0,0,1-1.583,1.825,5.569,5.569,0,0,1-3.331,1.1H34.508Z" transform="translate(-26.31 -5.56)" fill="#8158d2"/>
        </g>
      </g>
    </g>
  </g>
</svg>
