<svg xmlns="http://www.w3.org/2000/svg" width="22.581" height="21.712" viewBox="0 0 22.581 21.712">
  <path id="Icon_ionic-ios-heart-empty" data-name="Icon ionic-ios-heart-empty" d="M19.876,3.937h-.054A6.176,6.176,0,0,0,14.665,6.76,6.176,6.176,0,0,0,9.509,3.937H9.454a6.137,6.137,0,0,0-6.079,6.134,13.213,13.213,0,0,0,2.595,7.2,45.469,45.469,0,0,0,8.7,8.375,45.469,45.469,0,0,0,8.7-8.375,13.213,13.213,0,0,0,2.595-7.2A6.137,6.137,0,0,0,19.876,3.937Z" transform="translate(-3.375 -3.937)" fill="#0c0c0c"/>
</svg>
