<svg xmlns="http://www.w3.org/2000/svg" width="29.058" height="27.358" viewBox="0 0 29.058 27.358">
  <g id="noun-swipe-4270067" transform="translate(15.659 -6.081) rotate(45)">
    <g id="Layer_2" data-name="Layer 2" transform="translate(2.262 2.552)">
      <path id="Tracciato_397" data-name="Tracciato 397" d="M22.41,14.381a5.384,5.384,0,0,0-1.149-1.7L17.228,8.651a1.776,1.776,0,0,0-3,.919,1.766,1.766,0,0,0-2.511,1.256,1.753,1.753,0,0,0-2.479,1.14L5.294,8.023a1.819,1.819,0,0,0-2.512,0,1.776,1.776,0,0,0,0,2.512l8.775,8.776a.112.112,0,0,1,.026.129.109.109,0,0,1-.109.073h-2a3.125,3.125,0,0,0-2.809,1.736,1.316,1.316,0,0,0,.919,1.88l5.161,1.032a14.6,14.6,0,0,0,2.444.283h.149a6.007,6.007,0,0,0,4.213-1.787l1.567-1.564A6.065,6.065,0,0,0,22.41,14.381Zm-1.92,6.082L18.923,22.03a5.063,5.063,0,0,1-3.709,1.525,13.57,13.57,0,0,1-2.3-.266L7.758,22.257a.429.429,0,0,1-.3-.612A2.239,2.239,0,0,1,9.473,20.4h2a1.006,1.006,0,0,0,.711-1.718L3.409,9.908a.888.888,0,0,1,0-1.256.909.909,0,0,1,1.256,0l5.023,5.022h0l.627.627a.444.444,0,1,0,.628-.628l-.629-.63a.888.888,0,0,1,1.257-1.254l.942.942a.444.444,0,1,0,.628-.628l-.314-.313a.888.888,0,0,1,1.256-1.257l.942.942a.444.444,0,1,0,.628-.628l-.314-.314A.888.888,0,0,1,16.6,9.279l4.033,4.033a4.492,4.492,0,0,1,.96,1.421,5.179,5.179,0,0,1-1.1,5.729Z" transform="translate(-2.262 -3.107)" fill="#fff" stroke="#fff" stroke-width="0.4"/>
      <path id="Tracciato_398" data-name="Tracciato 398" d="M8.872,6.942l3.507.574a.5.5,0,0,0,.072.005.444.444,0,0,0,.071-.883L10,6.227a8.605,8.605,0,0,1,5.809-1.234,8.726,8.726,0,0,1,5.17,2.681.444.444,0,0,0,.65-.606,9.619,9.619,0,0,0-5.7-2.954,9.469,9.469,0,0,0-6.37,1.343l.391-2.388a.445.445,0,1,0-.878-.143L8.505,6.431a.444.444,0,0,0,.367.511Z" transform="translate(-2.959 -2.552)" fill="#fff" stroke="#fff" stroke-width="0.4"/>
    </g>
  </g>
</svg>
