<svg xmlns="http://www.w3.org/2000/svg" width="30.362" height="26.667" viewBox="0 0 30.362 26.667">
  <g id="noun-swipe-4270067" transform="translate(14.469 -0.743) rotate(45)">
    <g id="Layer_2" data-name="Layer 2" transform="translate(0 0)">
      <path id="Tracciato_397" data-name="Tracciato 397" d="M19.517,6.647A5.215,5.215,0,0,0,18.4,5L14.5,1.1a1.721,1.721,0,0,0-2.907.891A1.711,1.711,0,0,0,9.158,3.2a1.7,1.7,0,0,0-2.4,1.1L2.937.487A1.762,1.762,0,0,0,.5.487a1.721,1.721,0,0,0,0,2.433l8.5,8.5a.108.108,0,0,1,.025.125.106.106,0,0,1-.106.071H6.985A3.027,3.027,0,0,0,4.264,13.3a1.275,1.275,0,0,0,.891,1.822l5,1a14.148,14.148,0,0,0,2.368.274h.145a5.819,5.819,0,0,0,4.081-1.731l1.518-1.515A5.875,5.875,0,0,0,19.517,6.647Zm-1.86,5.892-1.518,1.519a4.9,4.9,0,0,1-3.593,1.477,13.146,13.146,0,0,1-2.223-.258l-5-1a.416.416,0,0,1-.289-.593,2.169,2.169,0,0,1,1.951-1.2H8.923a.975.975,0,0,0,.688-1.664l-8.5-8.5a.86.86,0,0,1,0-1.217.88.88,0,0,1,1.217,0L7.193,5.962h0l.607.607a.43.43,0,1,0,.608-.608L7.8,5.351A.86.86,0,0,1,9.017,4.136l.913.912a.43.43,0,1,0,.608-.608l-.3-.3a.861.861,0,1,1,1.217-1.218l.913.913a.43.43,0,1,0,.608-.608l-.3-.3A.86.86,0,0,1,13.886,1.7l3.906,3.907a4.351,4.351,0,0,1,.93,1.377,5.017,5.017,0,0,1-1.065,5.55Z" transform="translate(1.777 0)" fill="#fff" stroke="#fff" stroke-width="0.5"/>
      <path id="Tracciato_398" data-name="Tracciato 398" d="M.336.787,3.5.27a.45.45,0,0,1,.065,0,.4.4,0,0,1,.064.8l-2.27.371A7.758,7.758,0,0,0,6.594,2.544,7.867,7.867,0,0,0,11.255.128a.4.4,0,0,1,.586.546A8.672,8.672,0,0,1,6.7,3.337,8.537,8.537,0,0,1,.962,2.126L1.314,4.28a.4.4,0,1,1-.791.129L.005,1.248A.4.4,0,0,1,.336.787Z" transform="translate(4.745 7.968) rotate(90)" fill="#fff" stroke="#fff" stroke-width="0.5"/>
    </g>
  </g>
</svg>
